<?xml version="1.0" standalone="no"?>
<!DOCTYPE svg PUBLIC "-//W3C//DTD SVG 20010904//EN"
 "http://www.w3.org/TR/2001/REC-SVG-20010904/DTD/svg10.dtd">
<svg version="1.0" xmlns="http://www.w3.org/2000/svg"
 width="1144.000000pt" height="135.000000pt" viewBox="0 0 1144.000000 135.000000"
 preserveAspectRatio="xMidYMid meet">

<g transform="translate(0.000000,135.000000) scale(0.100000,-0.100000)"
fill="#000000" stroke="none">
<path d="M10932 1185 c-271 -59 -367 -381 -173 -576 99 -99 242 -129 376 -78
82 31 163 112 195 194 59 156 -3 338 -145 420 -34 20 -161 57 -185 54 -3 0
-34 -7 -68 -14z"/>
<path d="M4805 1020 c-27 -10 -49 -37 -37 -44 6 -3 15 1 22 9 7 8 27 17 46 21
19 3 34 10 34 15 0 11 -38 11 -65 -1z"/>
<path d="M5110 1020 c0 -5 10 -10 21 -10 12 0 37 -9 55 -21 29 -17 34 -18 34
-5 0 8 -13 22 -30 31 -33 17 -80 20 -80 5z"/>
<path d="M2046 1002 c-12 -19 57 -62 98 -62 38 0 32 17 -8 24 -19 4 -45 15
-59 26 -14 11 -28 16 -31 12z"/>
<path d="M3268 994 c-16 -8 -28 -19 -28 -24 0 -13 10 -12 40 5 14 8 35 14 48
15 12 0 22 5 22 10 0 15 -51 11 -82 -6z"/>
<path d="M3590 1003 c0 -6 14 -13 32 -17 17 -3 39 -13 49 -22 9 -8 20 -11 23
-6 3 5 -3 17 -13 26 -22 20 -91 34 -91 19z"/>
<path d="M6290 996 c0 -16 31 -33 74 -41 24 -5 36 -3 36 4 0 6 -8 11 -18 11
-10 0 -34 9 -55 19 -24 12 -37 15 -37 7z"/>
<path d="M6730 995 c-7 -8 -27 -17 -46 -21 -19 -3 -34 -11 -34 -16 0 -14 57
-2 87 17 23 15 31 35 14 35 -5 0 -14 -7 -21 -15z"/>
<path d="M200 987 c0 -8 11 -24 25 -37 18 -17 22 -27 14 -36 -16 -20 7 -54 37
-54 16 0 28 8 35 24 6 13 20 27 30 29 31 8 21 26 -18 33 -21 3 -55 17 -75 30
-43 28 -48 29 -48 11z"/>
<path d="M576 978 c-16 -12 -45 -24 -65 -27 -23 -4 -37 -12 -39 -24 -2 -9 3
-17 10 -17 7 0 18 -10 23 -22 20 -46 81 -28 72 21 -4 18 2 30 19 44 23 17 33
47 17 47 -5 0 -21 -10 -37 -22z"/>
<path d="M1786 985 c-11 -8 -30 -15 -43 -15 -14 0 -23 -6 -23 -15 0 -19 9 -19
52 -1 40 17 70 46 47 46 -8 0 -23 -7 -33 -15z"/>
<path d="M7851 980 c-13 -11 -34 -20 -47 -20 -13 0 -24 -4 -24 -10 0 -5 10
-10 23 -10 26 0 87 35 87 50 0 15 -12 12 -39 -10z"/>
<path d="M8140 991 c0 -16 56 -51 84 -51 14 0 26 5 26 10 0 6 -10 10 -21 10
-12 0 -37 9 -55 21 -19 11 -34 16 -34 10z"/>
<path d="M4827 934 c-25 -25 8 -70 43 -59 32 10 24 59 -10 63 -14 2 -29 0 -33
-4z"/>
<path d="M5097 934 c-25 -25 8 -70 43 -59 32 10 24 59 -10 63 -14 2 -29 0 -33
-4z"/>
<path d="M1784 915 c-14 -37 26 -69 53 -42 22 22 8 57 -23 57 -14 0 -27 -7
-30 -15z"/>
<path d="M2043 914 c-8 -22 10 -49 32 -49 22 0 40 27 32 49 -8 21 -56 21 -64
0z"/>
<path d="M3307 914 c-15 -16 -7 -53 14 -59 30 -10 58 19 43 43 -12 18 -45 28
-57 16z"/>
<path d="M3577 914 c-15 -16 -7 -53 14 -59 30 -10 58 19 43 43 -12 18 -45 28
-57 16z"/>
<path d="M6366 888 c-15 -21 -14 -24 3 -41 16 -16 21 -17 40 -6 25 16 27 32 5
53 -21 21 -30 20 -48 -6z"/>
<path d="M6647 899 c-39 -22 -4 -79 35 -58 10 5 18 18 18 29 0 25 -30 41 -53
29z"/>
<path d="M7812 873 c11 -14 65 -17 92 -7 31 12 15 19 -43 19 -48 1 -58 -2 -49
-12z"/>
<path d="M8110 879 c0 -17 72 -25 104 -13 31 12 15 19 -44 19 -33 0 -60 -3
-60 -6z"/>
<path d="M9425 850 c-3 -5 -2 -10 4 -10 5 0 13 5 16 10 3 6 2 10 -4 10 -5 0
-13 -4 -16 -10z"/>
<path d="M7985 816 c-29 -45 20 -113 51 -71 27 36 12 95 -23 95 -7 0 -20 -11
-28 -24z"/>
<path d="M4867 814 c-8 -9 11 -65 29 -85 28 -31 89 -43 137 -27 43 14 87 64
87 99 0 31 -18 21 -30 -16 -15 -44 -49 -68 -99 -68 -47 0 -89 28 -98 66 -6 28
-16 41 -26 31z"/>
<path d="M1766 795 c-8 -21 1 -35 20 -35 10 0 14 8 12 22 -4 27 -23 34 -32 13z"/>
<path d="M344 781 c-18 -11 -39 -30 -48 -42 -20 -30 -21 -69 -1 -69 9 0 15 9
15 21 0 12 14 34 32 51 28 26 38 29 71 25 44 -6 82 -37 91 -73 7 -28 36 -33
36 -6 0 31 -40 83 -75 98 -47 19 -84 18 -121 -5z"/>
<path d="M1850 790 c0 -6 38 -10 95 -10 57 0 95 4 95 10 0 6 -38 10 -95 10
-57 0 -95 -4 -95 -10z"/>
<path d="M3370 774 c0 -12 17 -14 98 -12 126 4 124 22 -3 25 -78 2 -95 -1 -95
-13z"/>
<path d="M6428 763 c-10 -2 -18 -11 -18 -19 0 -11 4 -12 19 -4 28 14 204 13
219 -2 9 -9 12 -8 12 4 0 9 -7 19 -16 22 -18 7 -190 6 -216 -1z"/>
<path d="M9603 753 c15 -2 37 -2 50 0 12 2 0 4 -28 4 -27 0 -38 -2 -22 -4z"/>
<path d="M8013 320 c0 -36 2 -50 4 -32 2 17 2 47 0 65 -2 17 -4 3 -4 -33z"/>
<path d="M8253 315 c0 -38 2 -58 4 -42 3 19 10 27 24 27 10 0 19 5 19 10 0 6
-9 10 -19 10 -15 0 -21 8 -24 33 -2 17 -4 1 -4 -38z"/>
<path d="M1847 346 c-9 -13 -30 -27 -48 -31 -20 -5 -28 -10 -21 -17 6 -6 24
-2 50 11 l41 21 33 -20 c35 -21 58 -26 58 -11 0 5 -12 12 -26 15 -14 4 -36 18
-49 32 l-23 24 -15 -24z"/>
<path d="M2030 360 c0 -6 35 -10 85 -10 50 0 85 4 85 10 0 6 -35 10 -85 10
-50 0 -85 -4 -85 -10z"/>
<path d="M3638 359 c-24 -13 -23 -56 1 -69 25 -13 77 -13 102 0 11 6 19 21 19
35 0 14 -8 29 -19 35 -25 13 -81 13 -103 -1z m101 -22 c16 -20 -6 -37 -50 -37
-42 0 -66 19 -47 38 16 16 83 15 97 -1z"/>
<path d="M4820 345 c0 -20 -5 -25 -25 -25 -14 0 -25 -4 -25 -10 0 -5 11 -10
25 -10 22 0 25 -4 25 -35 0 -19 5 -35 10 -35 6 0 10 30 10 70 0 40 -4 70 -10
70 -5 0 -10 -11 -10 -25z"/>
<path d="M4970 355 c0 -9 -9 -15 -25 -15 -34 0 -32 -18 3 -22 l27 -4 -34 -16
c-18 -8 -29 -18 -23 -22 6 -3 22 -1 36 5 20 9 32 9 51 1 31 -14 45 -15 45 -3
0 5 -15 15 -32 22 l-33 13 28 3 c34 5 36 23 2 23 -16 0 -25 6 -25 15 0 8 -4
15 -10 15 -5 0 -10 -7 -10 -15z"/>
<path d="M5084 255 c0 -66 1 -92 3 -57 2 34 2 88 0 120 -2 31 -3 3 -3 -63z"/>
<path d="M5310 305 c0 -37 4 -65 10 -65 6 0 10 11 10 25 0 16 6 25 15 25 8 0
15 5 15 10 0 6 -7 10 -15 10 -10 0 -15 10 -15 30 0 17 -4 30 -10 30 -6 0 -10
-28 -10 -65z"/>
<path d="M6360 330 l0 -40 70 0 70 0 -1 43 c0 23 -3 36 -6 30 -6 -16 -113 -18
-113 -3 0 6 -4 10 -10 10 -5 0 -10 -18 -10 -40z m130 -10 c0 -5 -25 -10 -55
-10 -30 0 -55 5 -55 10 0 6 25 10 55 10 30 0 55 -4 55 -10z"/>
<path d="M6740 285 c0 -50 4 -85 10 -85 6 0 10 18 10 40 0 29 4 40 15 40 8 0
15 5 15 10 0 6 -7 10 -15 10 -10 0 -15 11 -15 35 0 19 -4 35 -10 35 -6 0 -10
-35 -10 -85z"/>
<path d="M7890 348 c0 -12 -12 -34 -27 -50 -34 -36 -24 -46 13 -14 29 24 30
24 53 5 35 -28 46 -12 11 18 -16 13 -30 33 -30 44 0 10 -4 19 -10 19 -5 0 -10
-10 -10 -22z"/>
<path d="M8100 315 l0 -55 50 0 50 0 0 55 0 55 -50 0 -50 0 0 -55z m80 0 c0
-33 -2 -35 -35 -35 -33 0 -35 2 -35 35 0 33 2 35 35 35 33 0 35 -2 35 -35z"/>
<path d="M9470 255 c0 -70 4 -115 10 -115 6 0 10 45 10 115 0 70 -4 115 -10
115 -6 0 -10 -45 -10 -115z"/>
<path d="M9570 325 l0 -45 40 0 40 0 0 45 c0 25 -4 45 -10 45 -5 0 -10 -7 -10
-15 0 -8 -9 -15 -20 -15 -11 0 -20 7 -20 15 0 8 -4 15 -10 15 -5 0 -10 -20
-10 -45z m60 -15 c0 -5 -9 -10 -20 -10 -11 0 -20 5 -20 10 0 6 9 10 20 10 11
0 20 -4 20 -10z"/>
<path d="M9660 325 l0 -45 40 0 40 0 0 45 c0 25 -4 45 -10 45 -5 0 -10 -7 -10
-15 0 -8 -9 -15 -20 -15 -11 0 -20 7 -20 15 0 8 -4 15 -10 15 -5 0 -10 -20
-10 -45z m60 -15 c0 -5 -9 -10 -20 -10 -11 0 -20 5 -20 10 0 6 9 10 20 10 11
0 20 -4 20 -10z"/>
<path d="M10930 255 c0 -70 4 -115 10 -115 6 0 10 45 10 115 0 70 -4 115 -10
115 -6 0 -10 -45 -10 -115z"/>
<path d="M11170 255 c0 -70 4 -115 10 -115 6 0 10 27 10 60 0 53 2 60 20 60
11 0 20 5 20 10 0 6 -9 10 -20 10 -17 0 -20 7 -20 45 0 25 -4 45 -10 45 -6 0
-10 -45 -10 -115z"/>
<path d="M181 313 l-1 -53 70 0 70 0 0 50 c0 28 -4 50 -10 50 -5 0 -10 -7 -10
-15 0 -24 -107 -21 -113 3 -3 9 -5 -7 -6 -35z m119 -18 c0 -12 -13 -15 -55
-15 -42 0 -55 3 -55 15 0 12 13 15 55 15 42 0 55 -3 55 -15z"/>
<path d="M3388 349 c-25 -14 -24 -65 1 -79 25 -13 77 -13 102 0 12 7 19 21 19
40 0 19 -7 33 -19 40 -25 13 -81 13 -103 -1z m98 -24 c19 -15 19 -15 0 -30
-43 -33 -126 -7 -96 30 7 8 27 15 44 15 18 0 41 -7 52 -15z"/>
<path d="M4710 334 c0 -16 -12 -37 -30 -54 -17 -16 -26 -31 -21 -34 5 -3 20 7
34 23 l24 29 26 -26 c15 -14 30 -23 34 -19 4 4 -5 19 -20 33 -15 14 -27 36
-27 49 0 14 -4 25 -10 25 -5 0 -10 -12 -10 -26z"/>
<path d="M5160 350 c0 -5 18 -10 40 -10 28 0 40 -4 40 -14 0 -18 -56 -66 -76
-66 -9 0 -12 -4 -9 -10 14 -23 85 33 104 83 l11 27 -55 0 c-30 0 -55 -4 -55
-10z"/>
<path d="M6600 340 c-11 -11 -20 -29 -20 -40 0 -27 35 -60 63 -60 31 0 57 29
57 63 0 53 -61 76 -100 37z m80 -20 c8 -14 8 -26 0 -40 -19 -35 -80 -20 -80
20 0 40 61 55 80 20z"/>
<path d="M9310 340 c0 -5 20 -10 45 -10 39 0 45 -3 45 -21 0 -12 -20 -41 -45
-67 -49 -49 -54 -68 -8 -32 35 27 73 88 73 118 0 20 -5 22 -55 22 -30 0 -55
-4 -55 -10z"/>
<path d="M10780 341 c0 -6 20 -11 45 -13 l45 -3 -21 -42 c-11 -23 -34 -51 -51
-61 -17 -11 -26 -22 -20 -26 14 -8 79 54 92 88 21 56 15 66 -40 66 -27 0 -50
-4 -50 -9z"/>
<path d="M11030 275 l0 -75 60 0 c33 0 60 4 60 10 0 6 -25 10 -55 10 -52 0
-55 1 -55 25 0 23 4 25 45 25 25 0 45 5 45 10 0 6 -20 10 -45 10 -38 0 -45 3
-45 20 0 17 7 20 45 20 25 0 45 5 45 10 0 6 -22 10 -50 10 l-50 0 0 -75z"/>
<path d="M420 290 l0 -50 35 0 c32 0 35 -2 35 -30 0 -29 -1 -30 -50 -30 -27 0
-50 -4 -50 -10 0 -6 43 -10 110 -10 67 0 110 4 110 10 0 6 -22 10 -50 10 -49
0 -50 1 -50 30 0 28 3 30 35 30 19 0 35 5 35 10 0 6 -30 10 -70 10 l-70 0 0
40 c0 22 -4 40 -10 40 -5 0 -10 -22 -10 -50z"/>
<path d="M2065 320 c5 -16 2 -20 -14 -20 -12 0 -21 -4 -21 -10 0 -6 35 -10 85
-10 50 0 85 4 85 10 0 6 -9 10 -21 10 -16 0 -19 4 -14 20 4 11 2 20 -4 20 -6
0 -11 -9 -11 -20 0 -16 -7 -20 -35 -20 -28 0 -35 4 -35 20 0 11 -5 20 -11 20
-6 0 -8 -9 -4 -20z"/>
<path d="M1760 260 c0 -6 42 -10 105 -10 63 0 105 4 105 10 0 6 -42 10 -105
10 -63 0 -105 -4 -105 -10z"/>
<path d="M3580 260 c0 -5 23 -10 50 -10 28 0 50 -4 50 -10 0 -5 -13 -10 -30
-10 -60 0 -28 -19 38 -23 l67 -3 -67 -2 -68 -2 0 -30 0 -30 75 0 c43 0 75 4
75 10 0 6 -30 10 -70 10 -40 0 -70 4 -70 10 0 6 28 10 65 10 63 0 65 1 65 25
0 21 -5 25 -30 25 -16 0 -30 5 -30 10 0 6 23 10 50 10 28 0 50 5 50 10 0 6
-43 10 -110 10 -67 0 -110 -4 -110 -10z"/>
<path d="M6320 260 c0 -5 23 -10 50 -10 28 0 50 -4 50 -10 0 -5 -13 -10 -30
-10 -60 0 -28 -19 38 -23 l67 -3 -67 -2 -68 -2 0 -30 0 -30 75 0 c43 0 75 4
75 10 0 6 -28 10 -65 10 -37 0 -65 4 -65 10 0 6 27 10 60 10 57 0 60 1 60 25
0 21 -5 25 -30 25 -16 0 -30 5 -30 10 0 6 23 10 50 10 28 0 50 5 50 10 0 6
-43 10 -110 10 -67 0 -110 -4 -110 -10z"/>
<path d="M2010 250 c0 -6 42 -10 105 -10 63 0 105 4 105 10 0 6 -42 10 -105
10 -63 0 -105 -4 -105 -10z"/>
<path d="M9550 250 c0 -6 42 -10 105 -10 63 0 105 4 105 10 0 6 -42 10 -105
10 -63 0 -105 -4 -105 -10z"/>
<path d="M4900 240 c0 -5 16 -10 35 -10 34 0 35 -1 35 -40 0 -22 5 -40 10 -40
6 0 10 18 10 40 0 39 1 40 35 40 19 0 35 5 35 10 0 6 -33 10 -80 10 -47 0 -80
-4 -80 -10z"/>
<path d="M7880 240 c0 -6 28 -10 65 -10 37 0 65 -4 65 -10 0 -6 -28 -10 -65
-10 l-65 0 0 -30 0 -30 75 0 c43 0 75 4 75 10 0 6 -28 10 -65 10 -37 0 -65 4
-65 10 0 6 27 10 60 10 l60 0 0 30 0 30 -70 0 c-40 0 -70 -4 -70 -10z"/>
<path d="M140 230 c0 -5 23 -10 50 -10 47 0 50 -2 50 -25 0 -14 5 -25 10 -25
6 0 10 11 10 25 0 23 3 25 50 25 28 0 50 5 50 10 0 6 -43 10 -110 10 -67 0
-110 -4 -110 -10z"/>
<path d="M3330 230 c0 -5 23 -10 50 -10 l50 0 0 -40 c0 -22 5 -40 10 -40 6 0
10 18 10 40 l0 40 50 0 c28 0 50 5 50 10 0 6 -43 10 -110 10 -67 0 -110 -4
-110 -10z"/>
<path d="M8138 229 c-24 -13 -23 -56 1 -69 45 -24 131 -1 131 35 0 36 -90 59
-132 34z m96 -15 c9 -3 16 -12 16 -19 0 -26 -89 -36 -109 -12 -23 28 44 50 93
31z"/>
<path d="M1790 220 c0 -5 30 -11 68 -13 l67 -3 -67 -2 -68 -2 0 -30 0 -30 75
0 c43 0 75 4 75 10 0 6 -28 10 -65 10 -37 0 -65 4 -65 10 0 6 28 10 65 10 63
0 65 1 65 25 0 24 -2 25 -75 25 -41 0 -75 -4 -75 -10z"/>
<path d="M4712 214 c-12 -8 -22 -21 -22 -29 0 -21 41 -45 78 -45 46 0 72 16
72 45 0 14 -8 29 -19 35 -29 15 -83 12 -109 -6z m107 -17 c23 -28 -44 -50 -93
-31 -19 7 -21 30 -3 37 25 11 85 7 96 -6z"/>
<path d="M5190 185 l0 -45 70 0 70 0 0 45 0 45 -70 0 -70 0 0 -45z m120 0 c0
-24 -3 -25 -55 -25 -52 0 -55 1 -55 25 0 24 3 25 55 25 52 0 55 -1 55 -25z"/>
<path d="M2040 180 l0 -40 75 0 75 0 0 40 0 40 -75 0 -75 0 0 -40z m130 0 c0
-18 -7 -20 -55 -20 -48 0 -55 2 -55 20 0 18 7 20 55 20 48 0 55 -2 55 -20z"/>
<path d="M6610 180 l0 -40 75 0 c43 0 75 4 75 10 0 6 -28 10 -65 10 l-65 0 0
30 c0 17 -4 30 -10 30 -5 0 -10 -18 -10 -40z"/>
<path d="M9580 180 l0 -40 75 0 75 0 0 40 0 40 -75 0 -75 0 0 -40z m130 0 c0
-18 -7 -20 -55 -20 -48 0 -55 2 -55 20 0 18 7 20 55 20 48 0 55 -2 55 -20z"/>
<path d="M170 165 l0 -35 80 0 c47 0 80 4 80 10 0 6 -30 10 -70 10 -68 0 -70
1 -70 25 0 14 -4 25 -10 25 -5 0 -10 -16 -10 -35z"/>
</g>
</svg>
