<?xml version="1.0" standalone="no"?>
<!DOCTYPE svg PUBLIC "-//W3C//DTD SVG 20010904//EN"
 "http://www.w3.org/TR/2001/REC-SVG-20010904/DTD/svg10.dtd">
<svg version="1.0" xmlns="http://www.w3.org/2000/svg"
 width="159.000000pt" height="152.000000pt" viewBox="0 0 159.000000 152.000000"
 preserveAspectRatio="xMidYMid meet">

<g transform="translate(0.000000,152.000000) scale(0.100000,-0.100000)"
fill="#000000" stroke="none">
<path d="M634 1465 c-147 -32 -268 -99 -380 -211 -135 -135 -204 -301 -204
-494 0 -123 20 -203 77 -319 38 -77 62 -110 127 -175 154 -154 328 -226 546
-226 218 0 392 72 546 226 135 135 204 301 204 494 0 123 -20 203 -77 319 -96
194 -288 339 -511 386 -83 18 -247 18 -328 0z m116 -600 c0 -28 4 -35 20 -35
11 0 20 -7 20 -15 0 -8 -9 -15 -20 -15 -16 0 -20 -7 -20 -30 0 -25 -4 -30 -25
-30 -25 0 -25 1 -25 80 0 79 0 80 25 80 22 0 25 -4 25 -35z m310 -45 c0 -73
-2 -80 -20 -80 -16 0 -20 7 -20 35 0 32 -2 35 -30 35 -20 0 -30 5 -30 15 0 10
10 15 30 15 27 0 30 3 30 30 0 23 4 30 20 30 18 0 20 -7 20 -80z m-390 60 c0
-27 -44 -92 -77 -115 -42 -28 -54 -30 -71 -13 -8 8 0 18 33 39 24 15 49 37 55
48 10 20 8 21 -35 21 -33 0 -45 4 -45 15 0 12 14 15 70 15 42 0 70 -4 70 -10z
m310 -5 c0 -10 -10 -15 -30 -15 -20 0 -30 -5 -30 -15 0 -19 44 -65 62 -65 8 0
7 -6 -5 -17 -16 -16 -18 -16 -46 5 l-30 22 -27 -25 c-30 -28 -33 -29 -54 -15
-12 8 -10 14 17 37 17 15 34 38 38 51 6 19 3 22 -24 22 -21 0 -31 5 -31 15 0
12 16 15 80 15 64 0 80 -3 80 -15z m58 -151 c12 -8 22 -26 22 -39 0 -35 -36
-55 -97 -55 -40 0 -58 5 -73 20 -44 44 -8 90 73 90 31 0 61 -6 75 -16z m-288
-49 l0 -55 -95 0 -95 0 0 55 0 55 95 0 95 0 0 -55z"/>
<path d="M925 696 c-18 -13 -18 -14 3 -25 11 -6 28 -11 37 -11 9 0 26 5 37 11
21 11 21 12 3 25 -10 8 -28 14 -40 14 -12 0 -30 -6 -40 -14z"/>
<path d="M600 675 c0 -23 3 -25 50 -25 47 0 50 2 50 25 0 23 -3 25 -50 25 -47
0 -50 -2 -50 -25z"/>
</g>
</svg>
