<?xml version="1.0" standalone="no"?>
<!DOCTYPE svg PUBLIC "-//W3C//DTD SVG 20010904//EN"
 "http://www.w3.org/TR/2001/REC-SVG-20010904/DTD/svg10.dtd">
<svg version="1.0" xmlns="http://www.w3.org/2000/svg"
 width="127.000000pt" height="125.000000pt" viewBox="0 0 127.000000 125.000000"
 preserveAspectRatio="xMidYMid meet">

<g transform="translate(0.000000,125.000000) scale(0.100000,-0.100000)"
fill="#000000" stroke="none">
<path d="M519 1217 c-260 -59 -440 -251 -481 -513 -31 -196 61 -424 219 -549
327 -258 797 -126 945 265 29 79 32 94 32 205 -1 110 -3 127 -32 203 -68 181
-197 307 -378 368 -92 31 -222 40 -305 21z m51 -477 c0 -36 3 -40 25 -40 14 0
25 -4 25 -10 0 -5 -11 -10 -25 -10 -22 0 -25 -4 -25 -35 0 -24 -5 -35 -15 -35
-12 0 -15 16 -15 85 0 69 3 85 15 85 11 0 15 -11 15 -40z m200 25 c0 -10 11
-15 35 -15 19 0 35 -4 35 -10 0 -6 -37 -10 -90 -10 -53 0 -90 4 -90 10 0 6 16
10 35 10 24 0 35 5 35 15 0 8 9 15 20 15 11 0 20 -7 20 -15z m120 -30 c0 -41
2 -45 25 -45 14 0 25 -4 25 -10 0 -5 -11 -10 -25 -10 -22 0 -25 -4 -25 -40 0
-29 -4 -40 -15 -40 -12 0 -15 17 -15 95 0 78 3 95 15 95 11 0 15 -12 15 -45z
m-456 0 c5 -23 19 -44 41 -62 18 -15 31 -31 29 -35 -9 -13 -21 -9 -54 18 l-31
27 -15 -22 c-19 -26 -51 -44 -65 -35 -6 3 4 20 25 39 29 26 36 40 36 69 0 48
25 49 34 1z m380 -31 c9 -8 16 -19 16 -24 0 -14 -30 -40 -46 -40 -8 0 -14 -4
-14 -10 0 -5 18 -10 40 -10 22 0 40 -4 40 -10 0 -6 -40 -10 -100 -10 -60 0
-100 4 -100 10 0 6 18 10 40 10 22 0 40 5 40 10 0 6 -6 10 -14 10 -16 0 -46
26 -46 40 0 38 112 57 144 24z m-266 -120 c12 -8 22 -26 22 -39 0 -13 -10 -31
-22 -39 -26 -19 -106 -21 -142 -5 -44 20 -45 67 -3 87 34 16 119 14 145 -4z
m330 -20 c51 -35 8 -74 -83 -74 -39 0 -69 6 -83 16 -51 35 -8 74 83 74 39 0
69 -6 83 -16z"/>
<path d="M718 693 c-26 -6 -22 -20 7 -27 28 -7 75 2 75 14 0 15 -47 22 -82 13z"/>
<path d="M430 571 c-42 -12 -33 -44 15 -54 73 -15 131 30 69 53 -28 11 -47 11
-84 1z"/>
<path d="M741 549 c-39 -15 -9 -34 55 -33 65 0 91 18 50 34 -33 12 -73 12
-105 -1z"/>
</g>
</svg>
