<?xml version="1.0" standalone="no"?>
<!DOCTYPE svg PUBLIC "-//W3C//DTD SVG 20010904//EN"
 "http://www.w3.org/TR/2001/REC-SVG-20010904/DTD/svg10.dtd">
<svg version="1.0" xmlns="http://www.w3.org/2000/svg"
 width="142.000000pt" height="98.000000pt" viewBox="0 0 142.000000 98.000000"
 preserveAspectRatio="xMidYMid meet">

<g transform="translate(0.000000,98.000000) scale(0.100000,-0.100000)"
fill="#000000" stroke="none">
<path d="M0 490 l0 -490 710 0 710 0 0 490 0 490 -710 0 -710 0 0 -490z m843
327 c76 -45 138 -137 136 -202 -1 -24 -3 -22 -10 14 -4 24 -22 65 -39 91 -86
135 -268 161 -387 56 -125 -110 -125 -302 0 -412 151 -133 389 -47 427 155 12
67 23 82 14 21 -14 -96 -63 -171 -143 -218 -40 -24 -56 -27 -131 -27 -75 0
-91 3 -132 27 -147 87 -185 293 -78 428 59 74 122 101 226 96 56 -2 82 -9 117
-29z m-231 -134 c3 -64 5 -68 31 -77 41 -15 61 11 68 87 l6 62 1 -67 c2 -64
-11 -98 -38 -98 -4 0 -10 -24 -12 -52 -5 -57 11 -98 37 -98 12 0 15 16 15 80
l0 80 30 0 c72 0 129 -66 115 -131 -10 -42 -58 -79 -106 -79 -32 0 -39 3 -39
20 0 11 -6 20 -14 20 -28 0 -56 50 -56 99 0 41 -4 50 -30 69 -28 21 -30 27
-30 87 0 86 18 84 22 -2z m-419 -471 l19 23 -7 -25 c-4 -14 -9 -37 -12 -53 -7
-35 -23 -46 -23 -15 0 14 -7 33 -15 44 -8 10 -14 26 -14 34 0 10 5 7 16 -8
l17 -24 19 24z m91 2 c19 -18 21 -65 4 -82 -7 -7 -25 -12 -40 -12 -27 0 -28 2
-28 48 0 27 3 52 7 55 11 12 41 7 57 -9z m120 3 c24 -18 17 -51 -12 -55 -14
-2 -22 -10 -22 -23 0 -10 -4 -19 -10 -19 -11 0 -14 93 -3 103 10 11 27 8 47
-6z m91 3 c4 -6 -5 -10 -19 -10 -33 0 -36 -29 -3 -31 l22 -2 -22 -4 c-28 -5
-31 -33 -4 -33 11 0 23 -4 26 -10 4 -6 -8 -10 -29 -10 l-36 0 0 48 c0 27 3 52
7 55 10 11 51 8 58 -3z m71 -4 c16 -13 17 -18 6 -36 -10 -17 -11 -25 -1 -36 6
-8 9 -17 5 -21 -3 -4 -13 3 -22 15 -17 25 -39 30 -31 7 4 -8 2 -17 -3 -20 -6
-4 -10 17 -10 49 0 47 3 56 18 56 10 0 27 -6 38 -14z m89 4 c4 -6 -5 -10 -19
-10 -33 0 -36 -29 -3 -31 l22 -2 -22 -4 c-16 -3 -23 -11 -23 -29 0 -13 -4 -24
-10 -24 -11 0 -14 93 -3 103 10 11 51 8 58 -3z m79 -6 c19 -18 21 -65 4 -82
-46 -46 -105 32 -61 80 20 22 37 23 57 2z m86 1 c7 -8 10 -25 7 -37 -3 -11 -2
-30 4 -40 14 -25 -7 -24 -23 2 -7 11 -16 20 -20 20 -5 0 -8 -9 -8 -20 0 -11
-4 -20 -10 -20 -11 0 -14 93 -3 103 11 12 40 8 53 -8z m56 -17 l17 -32 16 32
c9 18 20 30 24 26 11 -11 8 -104 -3 -104 -5 0 -10 14 -10 32 0 30 -1 31 -15
12 -15 -19 -15 -19 -30 0 -14 19 -15 18 -15 -15 0 -20 -4 -29 -8 -22 -4 7 -7
25 -6 40 1 15 3 36 3 46 1 25 8 21 27 -15z m134 -10 c23 -51 27 -83 6 -55 -7
9 -19 17 -26 17 -7 0 -19 -8 -26 -17 -11 -14 -13 -15 -14 -3 0 16 30 100 37
100 2 0 13 -19 23 -42z m65 5 l25 -38 0 38 c0 23 4 36 10 32 13 -8 13 -92 0
-100 -5 -3 -19 9 -30 27 l-20 33 0 -32 c0 -18 -4 -33 -10 -33 -5 0 -10 25 -10
55 0 30 2 55 5 55 2 0 16 -17 30 -37z m125 27 c12 -8 9 -10 -11 -10 -33 0 -53
-22 -44 -50 4 -14 15 -20 36 -20 18 0 28 -4 24 -10 -9 -14 -48 -13 -63 2 -18
18 -15 75 6 87 22 13 33 13 52 1z m80 0 c0 -5 -11 -10 -25 -10 -36 0 -33 -30
3 -31 l27 -2 -27 -4 c-35 -5 -37 -33 -3 -33 14 0 25 -4 25 -10 0 -5 -13 -10
-30 -10 -30 0 -30 1 -30 55 0 54 0 55 30 55 17 0 30 -4 30 -10z"/>
<path d="M740 514 c0 -57 2 -65 15 -54 8 6 13 20 12 30 -2 23 17 31 21 9 1 -8
-9 -28 -23 -43 -37 -40 -33 -56 13 -45 74 16 96 87 43 140 -17 17 -40 29 -55
29 -25 0 -26 -2 -26 -66z m76 11 c9 -14 14 -28 11 -31 -3 -3 -8 3 -11 14 -4
10 -16 24 -29 30 -17 8 -18 11 -5 11 10 1 25 -10 34 -24z"/>
<path d="M240 176 c0 -30 4 -36 21 -36 17 0 20 5 17 32 -2 22 -9 34 -20 36
-15 3 -18 -4 -18 -32z"/>
<path d="M370 189 c0 -24 23 -21 28 4 2 10 -3 17 -12 17 -10 0 -16 -9 -16 -21z"/>
<path d="M527 203 c-13 -12 -7 -23 13 -23 11 0 20 7 20 15 0 15 -21 21 -33 8z"/>
<path d="M684 196 c-10 -27 1 -51 24 -54 21 -3 23 0 20 30 -3 35 -33 52 -44
24z"/>
<path d="M780 195 c0 -8 7 -15 15 -15 8 0 15 7 15 15 0 8 -7 15 -15 15 -8 0
-15 -7 -15 -15z"/>
<path d="M980 176 c0 -9 5 -16 10 -16 6 0 10 4 10 9 0 6 -4 13 -10 16 -5 3
-10 -1 -10 -9z"/>
</g>
</svg>
