<?xml version="1.0" standalone="no"?>
<!DOCTYPE svg PUBLIC "-//W3C//DTD SVG 20010904//EN"
 "http://www.w3.org/TR/2001/REC-SVG-20010904/DTD/svg10.dtd">
<svg version="1.0" xmlns="http://www.w3.org/2000/svg"
 width="102.000000pt" height="102.000000pt" viewBox="0 0 102.000000 102.000000"
 preserveAspectRatio="xMidYMid meet">

<g transform="translate(0.000000,102.000000) scale(0.100000,-0.100000)"
fill="#000000" stroke="none">
<path d="M765 1001 c-26 -12 -152 -131 -362 -342 l-322 -324 -41 -144 c-39
-140 -48 -191 -33 -191 4 0 80 21 169 46 l162 46 325 327 c212 212 328 336
332 354 4 15 11 27 16 27 5 0 9 18 9 40 0 22 -4 40 -9 40 -5 0 -11 11 -15 23
-14 59 -95 117 -161 117 -16 0 -48 -9 -70 -19z m142 -46 c73 -48 83 -161 18
-215 -14 -12 -28 -2 -111 81 -52 51 -93 98 -91 103 2 6 23 21 48 34 49 26 93
25 136 -3z m-172 -105 l39 -40 -263 -264 -264 -265 -51 26 c-28 14 -53 27 -56
30 -4 4 541 553 550 553 3 0 24 -18 45 -40z m-125 -425 c-151 -151 -278 -275
-281 -275 -3 0 -16 23 -29 50 l-24 51 264 264 265 265 40 -40 40 -40 -275
-275z m-430 -153 c44 -22 60 -37 82 -77 15 -28 28 -55 28 -62 0 -7 -28 -21
-62 -31 l-63 -19 -44 42 -44 43 18 66 c10 36 21 66 24 65 3 0 31 -12 61 -27z
m-86 -181 c16 -18 16 -19 -13 -29 -33 -12 -39 -4 -25 32 8 21 17 20 38 -3z"/>
</g>
</svg>
